<svg xmlns="http://www.w3.org/2000/svg" fill="none" viewBox="0 0 32 32"><path fill="currentColor" d="M.5 16C.5 7.44 7.44.5 16 .5 24.56.5 31.5 7.44 31.5 16c0 8.56-6.94 15.5-15.5 15.5C7.44 31.5.5 24.56.5 16Z"/><path stroke="#B4B4BF" d="M.5 16C.5 7.44 7.44.5 16 .5 24.56.5 31.5 7.44 31.5 16c0 8.56-6.94 15.5-15.5 15.5C7.44 31.5.5 24.56.5 16Z"/><path fill="#252529" fill-rule="evenodd" d="M10.913 13.223a.66.66 0 0 1 .934 0L16 17.377l4.153-4.154a.66.66 0 0 1 .934.934l-4.62 4.62a.66.66 0 0 1-.934 0l-4.62-4.62a.66.66 0 0 1 0-.934Z" clip-rule="evenodd"/></svg>