<svg xmlns="http://www.w3.org/2000/svg" width="122" height="29" fill="none"><path fill="#000" d="M37.985 19.216h3.671l-1.314-3.519a25.648 25.648 0 0 1-.534-1.61c-.158.52-.33 1.05-.517 1.593l-1.306 3.536Zm4.299 1.67h-4.918l-1.204 3.29H34l4.816-12.286h2.043l4.927 12.286h-2.273l-1.23-3.29ZM52.164 21.942c.427-.574.64-1.412.64-2.514 0-1.023-.177-1.765-.53-2.226-.353-.46-.824-.69-1.412-.69a2.28 2.28 0 0 0-1.127.287c-.345.193-.673.45-.984.772v4.9c.21.102.452.183.73.242.276.06.55.09.822.09.814 0 1.434-.287 1.86-.861Zm-5.507-4.676c0-.678-.023-1.425-.068-2.238h1.967c.074.378.124.765.153 1.161.814-.887 1.746-1.331 2.798-1.331.61 0 1.175.154 1.696.462.52.308.94.794 1.258 1.458.32.665.48 1.508.48 2.531 0 1.069-.183 1.982-.547 2.739-.365.758-.875 1.331-1.53 1.721-.656.39-1.414.585-2.273.585a5.6 5.6 0 0 1-1.84-.313v3.78L46.657 28V17.266ZM61.718 21.942c.427-.574.64-1.412.64-2.514 0-1.023-.176-1.765-.53-2.226-.353-.46-.823-.69-1.411-.69a2.28 2.28 0 0 0-1.128.287 4.24 4.24 0 0 0-.983.772v4.9c.209.102.452.183.73.242.276.06.55.09.821.09.814 0 1.435-.287 1.861-.861Zm-5.507-4.676c0-.678-.022-1.425-.067-2.238h1.967c.073.378.124.765.153 1.161.813-.887 1.746-1.331 2.797-1.331.611 0 1.176.154 1.696.462.52.308.94.794 1.26 1.458.319.665.478 1.508.478 2.531 0 1.069-.182 1.982-.547 2.739-.364.758-.874 1.331-1.53 1.721-.656.39-1.413.585-2.272.585a5.6 5.6 0 0 1-1.84-.313v3.78L56.21 28V17.266ZM68.343 23.595a5.082 5.082 0 0 1-2.086-2.15c-.487-.932-.73-2.034-.73-3.306 0-1.379.28-2.55.84-3.514.56-.964 1.321-1.688 2.285-2.17.964-.484 2.045-.726 3.243-.726.707 0 1.38.078 2.023.233a8.756 8.756 0 0 1 1.793.64l-.535 1.611c-1.113-.53-2.176-.797-3.187-.797-.854 0-1.602.183-2.243.547-.642.365-1.14.9-1.497 1.607-.356.707-.534 1.56-.534 2.56 0 .877.137 1.654.411 2.332a3.446 3.446 0 0 0 1.298 1.611c.59.396 1.335.594 2.234.594.407 0 .814-.034 1.22-.102a6.371 6.371 0 0 0 1.145-.297v-2.484h-2.84v-1.628h4.875v5.172c-.7.328-1.437.58-2.208.755-.772.175-1.54.263-2.302.263-1.233 0-2.301-.25-3.206-.75ZM82.246 22.48a3.35 3.35 0 0 0 1.068-.78v-1.695a13.501 13.501 0 0 0-1.399-.094c-.865 0-1.463.14-1.793.42-.331.28-.496.657-.496 1.132 0 .452.12.787.36 1.005.24.217.567.326.98.326.417 0 .844-.105 1.28-.314Zm1.255 1.696a7.978 7.978 0 0 1-.145-1.212c-.322.384-.741.71-1.259.98-.517.268-1.1.402-1.75.402a3.295 3.295 0 0 1-1.438-.31 2.396 2.396 0 0 1-1.03-.933c-.254-.415-.382-.922-.382-1.522 0-.887.32-1.595.959-2.123.638-.529 1.704-.793 3.196-.793.56 0 1.114.04 1.662.119v-.178c0-.809-.173-1.378-.517-1.71-.345-.33-.84-.495-1.484-.495-.447 0-.924.065-1.433.195s-.955.286-1.34.466l-.33-1.526c.373-.17.865-.325 1.475-.466a8.563 8.563 0 0 1 1.933-.212c.792 0 1.464.12 2.018.36.554.24.987.653 1.297 1.238.311.585.467 1.372.467 2.361v3.638c0 .379.022.953.067 1.721h-1.966ZM87.007 21.98V11.17l2.085-.17v10.607c0 .39.067.666.2.827.132.16.343.241.631.241.13 0 .314-.03.551-.093l.246 1.5c-.198.08-.44.144-.725.192a4.908 4.908 0 0 1-.81.072c-1.453 0-2.178-.789-2.178-2.366ZM92.22 21.98V11.17l2.087-.17v10.607c0 .39.066.666.199.827.133.16.343.241.632.241.13 0 .313-.03.55-.093l.247 1.5a3.56 3.56 0 0 1-.725.192 4.909 4.909 0 0 1-.81.072c-1.453 0-2.18-.789-2.18-2.366ZM102.471 18.538c-.042-.73-.225-1.276-.552-1.641-.328-.364-.768-.547-1.314-.547-.532 0-.974.184-1.327.551-.353.368-.586.913-.692 1.637h3.885Zm2.041 1.33h-5.985c.095 1.917 1.008 2.875 2.739 2.875a5.83 5.83 0 0 0 1.319-.156c.449-.105.88-.245 1.292-.42l.459 1.432c-1.025.498-2.174.747-3.451.747-.974 0-1.792-.184-2.459-.551a3.527 3.527 0 0 1-1.507-1.586c-.335-.69-.503-1.52-.503-2.493 0-1.011.178-1.882.534-2.611.356-.73.852-1.286 1.487-1.67.636-.385 1.37-.577 2.202-.577.865 0 1.585.202 2.165.606.58.404 1.008.943 1.288 1.615.28.673.42 1.416.42 2.23v.56ZM106.098 17.325c0-.503-.026-1.268-.071-2.297h1.961a26.329 26.329 0 0 1 .16 1.771c.243-.4.481-.738.717-1.013a2.94 2.94 0 0 1 .823-.67 2.186 2.186 0 0 1 1.073-.258c.322 0 .596.034.829.102l-.263 1.814a2.307 2.307 0 0 0-.678-.093c-.49 0-.922.126-1.289.377-.367.252-.759.666-1.179 1.242v5.876h-2.083v-6.85ZM112.766 27.92a5.032 5.032 0 0 1-.753-.183l.381-1.526c.14.04.319.078.535.115.212.037.417.055.61.055.927 0 1.622-.597 2.084-1.79l.137-.339-3.375-9.224h2.246l1.698 5.155c.274.881.453 1.557.532 2.026.159-.661.344-1.323.56-1.984l1.722-5.198h2.109l-3.363 9.268c-.317.876-.661 1.582-1.028 2.12-.367.536-.801.935-1.3 1.195-.501.26-1.103.39-1.812.39-.35 0-.678-.027-.983-.08Z"/><path fill="#C91C2E" fill-rule="evenodd" d="M19.404 1H7.596C2.034 1 0 3.034 0 8.596v11.808C0 25.966 2.034 28 7.596 28H19.4c5.562 0 7.6-2.034 7.6-7.596V8.596C27 3.034 24.966 1 19.404 1" clip-rule="evenodd"/><path fill="#fff" d="M11.78 16.66h1.082l-.543-1.264-.54 1.263Zm-.267.636-.321.735h-.732l1.556-3.528h.631l1.55 3.528h-.752l-.317-.735h-1.615Zm11.767.732h.707v-3.525h-.707v3.525Zm-2.813-1.515h1.303v-.642h-1.303v-.723h1.891v-.643h-2.597v3.525h2.665v-.643h-1.959v-.874Zm-2.808.417-.802-2.428h-.584l-.801 2.428-.78-2.426h-.762l1.23 3.528h.593l.802-2.317.803 2.317h.598l1.227-3.528h-.742l-.782 2.426Zm-8.277-.407c0 .574-.286.88-.803.88-.52 0-.807-.315-.807-.904v-1.994h-.716v2.018c0 .993.551 1.562 1.513 1.562.971 0 1.528-.58 1.528-1.591v-1.992h-.715v2.021Zm-4.035-2.02h.716v3.53h-.716v-1.434H3.729v1.434h-.716v-3.53h.716v1.424h1.618v-1.424ZM13.5 10.008a4.5 4.5 0 0 1-4.494-4.494h.635A3.864 3.864 0 0 0 13.5 9.373a3.864 3.864 0 0 0 3.86-3.86h.634a4.5 4.5 0 0 1-4.494 4.495"/><path fill="#989898" d="M36.915 7.723h-2.176V1h2.245c.658 0 1.224.134 1.697.403a2.66 2.66 0 0 1 1.086 1.152c.254.5.38 1.098.38 1.796 0 .7-.127 1.302-.383 1.805-.254.503-.622.89-1.103 1.162-.481.27-1.064.404-1.746.404Zm-1.162-.886h1.106c.512 0 .938-.097 1.277-.29a1.82 1.82 0 0 0 .761-.843c.169-.37.253-.82.253-1.352 0-.528-.084-.975-.253-1.343a1.785 1.785 0 0 0-.745-.837c-.33-.19-.74-.285-1.23-.285h-1.17v4.95Zm5.3.886V2.68h.982v5.042h-.982Zm.496-5.82a.624.624 0 0 1-.44-.17.555.555 0 0 1-.18-.414c0-.162.06-.3.18-.414a.618.618 0 0 1 .44-.174c.17 0 .316.058.436.174a.544.544 0 0 1 .184.414.55.55 0 0 1-.184.414.612.612 0 0 1-.436.17Zm5.307 2.009-.89.158a1.055 1.055 0 0 0-.177-.325.877.877 0 0 0-.322-.253 1.165 1.165 0 0 0-.509-.099c-.277 0-.51.063-.695.188-.186.122-.28.28-.28.475 0 .169.063.305.188.407.124.103.326.188.604.253l.8.184c.464.107.81.272 1.038.496.227.223.341.513.341.87 0 .301-.087.57-.263.807a1.72 1.72 0 0 1-.725.551c-.308.134-.666.2-1.073.2-.565 0-1.025-.12-1.382-.36a1.527 1.527 0 0 1-.657-1.034l.949-.145c.06.247.18.435.364.561.184.125.424.188.72.188.32 0 .578-.067.77-.2.193-.136.29-.302.29-.496 0-.158-.06-.29-.178-.397-.116-.108-.294-.189-.535-.243l-.853-.187c-.47-.108-.819-.278-1.044-.512-.223-.235-.335-.531-.335-.89 0-.298.083-.558.25-.781.166-.223.396-.397.689-.522.293-.127.629-.19 1.008-.19.544 0 .973.118 1.286.354.313.234.52.548.62.942Zm.9 5.702V2.68h.958v.817h.082c.057-.105.14-.226.247-.364.107-.138.256-.258.446-.361.19-.105.442-.158.755-.158.407 0 .77.103 1.09.309.32.206.57.502.751.89.184.387.276.853.276 1.398 0 .545-.09 1.012-.272 1.401a2.125 2.125 0 0 1-.749.897c-.317.207-.68.311-1.086.311-.306 0-.557-.051-.752-.154a1.422 1.422 0 0 1-.453-.361 2.738 2.738 0 0 1-.253-.368h-.059v2.676h-.981Zm.962-4.412c0 .355.051.665.154.932.103.267.252.476.446.627.195.149.434.223.716.223.293 0 .538-.077.735-.233.197-.157.346-.37.447-.64.102-.269.154-.572.154-.909 0-.333-.05-.631-.151-.896a1.372 1.372 0 0 0-.447-.627c-.197-.153-.443-.23-.738-.23-.285 0-.525.074-.722.22a1.35 1.35 0 0 0-.443.614 2.56 2.56 0 0 0-.151.919Zm6.59 2.623c-.474 0-.886-.109-1.238-.325a2.191 2.191 0 0 1-.82-.91c-.196-.389-.293-.844-.293-1.365 0-.523.097-.98.292-1.372.195-.392.468-.696.82-.913.353-.216.765-.325 1.238-.325s.885.109 1.238.325c.352.217.625.521.82.913.195.392.292.849.292 1.372 0 .52-.097.976-.292 1.365-.195.39-.468.693-.82.91-.353.216-.765.325-1.238.325ZM55.31 7c.307 0 .56-.081.762-.243.201-.162.35-.378.446-.647.099-.269.148-.565.148-.89 0-.321-.05-.616-.148-.886a1.444 1.444 0 0 0-.446-.653c-.201-.164-.455-.246-.762-.246-.308 0-.564.082-.768.246a1.466 1.466 0 0 0-.45.653c-.096.27-.144.565-.144.887 0 .324.048.62.145.89.098.268.248.484.45.646.203.162.459.243.767.243Zm4.147-2.272v2.994h-.981V2.68h.942v.82h.062a1.44 1.44 0 0 1 .545-.643c.25-.162.563-.243.942-.243.343 0 .644.073.903.217.258.142.458.355.6.637.142.282.214.631.214 1.047v3.207h-.982V4.634c0-.365-.095-.65-.285-.857-.19-.207-.452-.311-.785-.311-.227 0-.43.049-.607.147a1.062 1.062 0 0 0-.417.434 1.43 1.43 0 0 0-.151.682Zm4.265 2.994V2.68h.982v5.042h-.981Zm.496-5.82a.624.624 0 0 1-.44-.17.555.555 0 0 1-.18-.414c0-.162.06-.3.18-.414a.618.618 0 0 1 .44-.174c.17 0 .316.058.437.174a.544.544 0 0 1 .184.414.55.55 0 0 1-.184.414.612.612 0 0 1-.437.17Zm1.608 5.82V1h.981v2.497h.06c.056-.105.138-.226.245-.364.108-.138.257-.258.447-.361.19-.105.442-.158.755-.158.407 0 .77.103 1.09.309.32.206.57.502.751.89.184.387.276.853.276 1.398 0 .545-.09 1.012-.272 1.401a2.126 2.126 0 0 1-.749.897c-.317.207-.68.311-1.086.311-.307 0-.557-.051-.752-.154a1.423 1.423 0 0 1-.453-.361 2.738 2.738 0 0 1-.253-.368h-.082v.785h-.958Zm.962-2.521c0 .355.051.665.154.932.103.267.252.476.446.627.195.149.433.223.716.223.293 0 .538-.077.735-.233.197-.157.346-.37.447-.64.102-.269.154-.572.154-.909 0-.333-.05-.631-.151-.896a1.37 1.37 0 0 0-.447-.627c-.197-.153-.443-.23-.738-.23-.285 0-.525.074-.722.22a1.35 1.35 0 0 0-.444.614c-.1.263-.15.569-.15.919Zm5.45-4.201v6.722h-.982V1h.981Zm3.215 6.824c-.496 0-.924-.106-1.283-.319a2.16 2.16 0 0 1-.827-.902c-.193-.39-.29-.846-.29-1.37 0-.516.097-.97.29-1.365.194-.394.466-.701.814-.922.35-.221.759-.332 1.227-.332.285 0 .56.048.828.142.266.094.506.241.718.443.213.201.38.463.502.784.123.32.184.708.184 1.165v.348H73.61v-.735h3.046c0-.258-.053-.487-.158-.686a1.19 1.19 0 0 0-.443-.476 1.238 1.238 0 0 0-.663-.174c-.276 0-.517.068-.722.204a1.366 1.366 0 0 0-.473.525c-.11.214-.164.447-.164.7v.573c0 .337.059.624.177.86.12.237.288.417.502.542.215.123.465.184.752.184.186 0 .356-.026.509-.079a1.054 1.054 0 0 0 .653-.64l.929.167a1.682 1.682 0 0 1-.4.72c-.19.203-.43.361-.72.475a2.69 2.69 0 0 1-.98.168Zm7.317 0c-.497 0-.925-.106-1.284-.319a2.16 2.16 0 0 1-.827-.902c-.192-.39-.289-.846-.289-1.37 0-.516.097-.97.29-1.365.194-.394.465-.701.813-.922.35-.221.76-.332 1.228-.332.284 0 .56.048.827.142.267.094.507.241.719.443.212.201.38.463.502.784.123.32.184.708.184 1.165v.348h-4.008v-.735h3.046c0-.258-.052-.487-.157-.686a1.19 1.19 0 0 0-.443-.476 1.238 1.238 0 0 0-.663-.174c-.276 0-.517.068-.723.204a1.366 1.366 0 0 0-.472.525c-.11.214-.165.447-.165.7v.573c0 .337.06.624.178.86.12.237.288.417.502.542.215.123.465.184.752.184.186 0 .355-.026.508-.079a1.054 1.054 0 0 0 .653-.64l.93.167a1.682 1.682 0 0 1-.4.72c-.191.203-.43.361-.72.475a2.69 2.69 0 0 1-.981.168Zm3.956-3.096v2.994h-.981V2.68h.942v.82h.062c.116-.266.298-.48.545-.643.25-.162.563-.243.942-.243.343 0 .644.073.903.217.258.142.458.355.6.637.142.282.214.631.214 1.047v3.207h-.982V4.634c0-.365-.095-.65-.285-.857-.19-.207-.452-.311-.785-.311-.227 0-.43.049-.607.147a1.062 1.062 0 0 0-.417.434 1.43 1.43 0 0 0-.151.682Z"/></svg>