<svg xmlns="http://www.w3.org/2000/svg" width="100" height="27" fill="none"><path fill="#fff" d="M71.554 11.719v2.29h-1.436v1.503h1.436v5.105c0 1.743.789 2.44 2.772 2.44.35 0 .681-.04.972-.09V21.48c-.25.024-.407.041-.681.041-.888 0-1.278-.415-1.278-1.361v-4.649h1.959V14.01h-1.96v-2.291h-1.784ZM80.352 23.182c2.64 0 4.258-1.768 4.258-4.698 0-2.914-1.627-4.69-4.258-4.69-2.64 0-4.267 1.776-4.267 4.69 0 2.93 1.619 4.698 4.267 4.698Zm0-1.585c-1.553 0-2.424-1.137-2.424-3.113 0-1.959.871-3.104 2.424-3.104 1.543 0 2.423 1.145 2.423 3.104 0 1.967-.88 3.113-2.424 3.113ZM85.995 23.008h1.784v-5.337c0-1.27.955-2.125 2.308-2.125.315 0 .847.058.996.107v-1.76c-.19-.05-.531-.074-.797-.074-1.178 0-2.183.647-2.44 1.536h-.133v-1.387h-1.718v9.04ZM95.514 15.313c1.32 0 2.184.922 2.225 2.341h-4.565c.1-1.411 1.02-2.34 2.34-2.34Zm2.217 5.255c-.332.705-1.071 1.095-2.15 1.095-1.428 0-2.35-1.004-2.407-2.59v-.1h6.383v-.622c0-2.839-1.52-4.557-4.034-4.557-2.549 0-4.167 1.835-4.167 4.723 0 2.889 1.585 4.665 4.175 4.665 2.067 0 3.511-.996 3.918-2.614H97.73ZM59.85 19.67c.138 2.22 1.988 3.64 4.741 3.64 2.942 0 4.784-1.49 4.784-3.864 0-1.867-1.05-2.9-3.597-3.493l-1.368-.335c-1.617-.379-2.271-.887-2.271-1.773 0-1.118 1.015-1.85 2.538-1.85 1.445 0 2.443.715 2.624 1.859h1.876c-.112-2.09-1.953-3.562-4.474-3.562-2.71 0-4.517 1.471-4.517 3.682 0 1.824 1.024 2.908 3.27 3.433l1.6.387c1.643.387 2.365.955 2.365 1.902 0 1.1-1.135 1.901-2.684 1.901-1.66 0-2.813-.748-2.977-1.927h-1.91ZM41.363 13.819c-1.228 0-2.29.614-2.839 1.644h-.133v-1.495h-1.718v12.045h1.785v-4.375h.14c.474.955 1.495 1.52 2.782 1.52 2.282 0 3.735-1.802 3.735-4.674 0-2.872-1.453-4.665-3.752-4.665Zm-.506 7.736c-1.494 0-2.432-1.178-2.432-3.063 0-1.892.938-3.07 2.44-3.07 1.51 0 2.416 1.153 2.416 3.062 0 1.917-.905 3.071-2.424 3.071ZM51.36 13.819c-1.229 0-2.291.614-2.839 1.644h-.133v-1.495H46.67v12.045h1.785v-4.375h.14c.474.955 1.495 1.52 2.782 1.52 2.282 0 3.735-1.802 3.735-4.674 0-2.872-1.453-4.665-3.752-4.665Zm-.507 7.736c-1.494 0-2.432-1.178-2.432-3.063 0-1.892.938-3.07 2.44-3.07 1.512 0 2.416 1.153 2.416 3.062 0 1.917-.904 3.071-2.424 3.071ZM33.471 23.008h2.048l-4.483-12.415h-2.073L24.48 23.008h1.98l1.143-3.295h4.733l1.135 3.295Zm-3.57-10.16h.146l1.798 5.247h-3.751l1.807-5.248ZM14.714 12.806a4.995 4.995 0 0 1 2.344-4.152 5.092 5.092 0 0 0-3.969-2.158C11.42 6.32 9.8 7.501 8.95 7.501c-.867 0-2.177-.987-3.588-.958A5.325 5.325 0 0 0 .913 9.27c-1.923 3.348-.488 8.27 1.354 10.976.922 1.325 1.999 2.806 3.408 2.753 1.38-.057 1.895-.884 3.56-.884 1.65 0 2.133.884 3.57.85 1.48-.023 2.413-1.33 3.303-2.668a10.983 10.983 0 0 0 1.51-3.093c-1.74-.74-2.901-2.5-2.903-4.4ZM11.998 4.716a4.89 4.89 0 0 0 1.108-3.49 4.92 4.92 0 0 0-3.19 1.66 4.695 4.695 0 0 0-1.137 3.36A4.115 4.115 0 0 0 12 4.717ZM28.915 7.645h-2.177V.922h2.246c.658 0 1.224.135 1.697.404a2.66 2.66 0 0 1 1.086 1.152c.254.499.38 1.097.38 1.796 0 .7-.127 1.302-.383 1.805-.254.503-.622.89-1.103 1.162-.481.269-1.064.404-1.746.404Zm-1.162-.887h1.106c.512 0 .938-.096 1.277-.289a1.82 1.82 0 0 0 .761-.843c.169-.37.253-.82.253-1.353 0-.527-.084-.974-.253-1.342a1.785 1.785 0 0 0-.745-.837c-.33-.19-.74-.286-1.23-.286h-1.17v4.95Zm5.3.887V2.603h.982v5.042h-.982Zm.496-5.82a.624.624 0 0 1-.44-.17.555.555 0 0 1-.18-.414c0-.162.06-.3.18-.414a.618.618 0 0 1 .44-.174c.17 0 .316.058.436.174a.544.544 0 0 1 .184.414.55.55 0 0 1-.184.413.612.612 0 0 1-.436.17Zm5.307 2.009-.89.157a1.055 1.055 0 0 0-.177-.325.877.877 0 0 0-.322-.252 1.165 1.165 0 0 0-.509-.099c-.277 0-.51.062-.695.187-.186.123-.28.281-.28.476 0 .169.063.304.188.407.124.103.326.187.604.253l.8.184c.464.107.81.272 1.038.495.227.224.341.513.341.87 0 .302-.087.571-.263.808a1.72 1.72 0 0 1-.725.551c-.308.134-.666.2-1.073.2-.565 0-1.025-.12-1.382-.36a1.527 1.527 0 0 1-.657-1.035l.949-.144c.06.247.18.434.364.561.184.125.424.187.72.187.32 0 .578-.067.77-.2.193-.136.29-.3.29-.496 0-.157-.06-.29-.178-.397-.116-.107-.294-.188-.535-.243l-.853-.187c-.47-.107-.819-.278-1.044-.512-.223-.234-.335-.53-.335-.89 0-.297.083-.557.25-.78.166-.224.396-.398.689-.523.293-.126.629-.19 1.008-.19.544 0 .973.118 1.286.355.313.234.52.548.62.942Zm.9 5.701V2.603h.958v.817h.082c.057-.105.14-.226.247-.364.107-.138.256-.258.446-.361.19-.105.442-.158.755-.158.407 0 .77.103 1.09.309.32.205.57.502.751.89.184.387.276.853.276 1.397 0 .545-.09 1.013-.272 1.402a2.125 2.125 0 0 1-.749.896c-.317.208-.68.312-1.086.312-.306 0-.557-.051-.752-.154a1.422 1.422 0 0 1-.453-.361 2.737 2.737 0 0 1-.253-.368h-.059v2.675h-.981Zm.962-4.411c0 .354.051.665.154.932.103.267.252.476.446.627.195.149.434.223.716.223.293 0 .538-.078.735-.233.197-.158.346-.371.447-.64.102-.27.154-.572.154-.91 0-.332-.05-.63-.151-.895a1.372 1.372 0 0 0-.447-.627c-.197-.154-.443-.23-.738-.23-.285 0-.525.073-.722.22a1.35 1.35 0 0 0-.443.614 2.56 2.56 0 0 0-.151.919Zm6.59 2.622c-.474 0-.886-.108-1.238-.325a2.191 2.191 0 0 1-.82-.909c-.196-.39-.293-.845-.293-1.365 0-.523.097-.98.292-1.372.195-.392.468-.696.82-.913.353-.217.765-.325 1.238-.325s.885.108 1.238.325c.352.217.625.52.82.913.195.391.292.849.292 1.372 0 .52-.097.976-.292 1.365-.195.39-.468.693-.82.91-.353.216-.765.324-1.238.324Zm.002-.824c.307 0 .56-.08.762-.242.201-.162.35-.378.446-.647.099-.27.148-.566.148-.89 0-.321-.05-.617-.148-.886a1.444 1.444 0 0 0-.446-.653c-.201-.164-.455-.246-.762-.246-.308 0-.564.082-.768.246a1.466 1.466 0 0 0-.45.653c-.096.27-.144.565-.144.886 0 .324.048.62.145.89.098.269.248.485.45.647.203.161.459.242.767.242Zm4.147-2.271v2.994h-.981V2.603h.942v.82h.062a1.44 1.44 0 0 1 .545-.643c.25-.162.563-.243.942-.243.343 0 .644.072.903.217.258.142.458.354.6.637.142.282.214.63.214 1.047v3.207h-.982v-3.09c0-.365-.095-.65-.285-.856-.19-.208-.452-.312-.785-.312-.227 0-.43.05-.607.148a1.062 1.062 0 0 0-.417.433 1.43 1.43 0 0 0-.151.683Zm4.265 2.994V2.603h.982v5.042h-.982Zm.496-5.82a.624.624 0 0 1-.44-.17.555.555 0 0 1-.18-.414c0-.162.06-.3.18-.414a.618.618 0 0 1 .44-.174c.17 0 .316.058.437.174a.544.544 0 0 1 .184.414.55.55 0 0 1-.184.413.612.612 0 0 1-.437.17Zm1.608 5.82V.922h.981V3.42h.06c.056-.105.138-.226.245-.364.108-.138.256-.258.447-.361.19-.105.442-.158.755-.158.407 0 .77.103 1.09.309.32.205.57.502.751.89.184.387.276.853.276 1.397 0 .545-.09 1.013-.272 1.402a2.126 2.126 0 0 1-.749.896c-.317.208-.68.312-1.086.312-.307 0-.557-.051-.752-.154a1.423 1.423 0 0 1-.453-.361 2.737 2.737 0 0 1-.253-.368h-.082v.785h-.958Zm.962-2.521c0 .354.051.665.154.932.103.267.252.476.446.627.195.149.434.223.716.223.293 0 .538-.078.735-.233.197-.158.346-.371.447-.64.102-.27.154-.572.154-.91 0-.332-.05-.63-.151-.895a1.37 1.37 0 0 0-.447-.627c-.197-.154-.443-.23-.738-.23-.285 0-.525.073-.722.22a1.35 1.35 0 0 0-.444.614c-.1.262-.15.569-.15.919Zm5.45-4.202v6.723h-.982V.922h.981Zm3.215 6.824c-.496 0-.924-.106-1.283-.318a2.16 2.16 0 0 1-.827-.903c-.193-.39-.29-.846-.29-1.369 0-.516.097-.971.29-1.365.194-.394.466-.701.814-.922.35-.221.759-.332 1.227-.332.285 0 .56.047.828.141.266.094.506.242.718.443.213.202.38.463.502.785.123.32.184.708.184 1.165v.348H65.61v-.735h3.046c0-.258-.053-.487-.158-.686a1.19 1.19 0 0 0-.443-.476 1.238 1.238 0 0 0-.663-.174c-.276 0-.517.068-.722.203a1.366 1.366 0 0 0-.473.526c-.11.214-.164.447-.164.699v.574c0 .337.059.624.177.86.12.236.288.417.502.542.215.122.465.184.752.184.186 0 .356-.027.509-.08a1.054 1.054 0 0 0 .653-.64l.929.168a1.682 1.682 0 0 1-.4.719c-.19.203-.43.362-.72.476a2.69 2.69 0 0 1-.98.167Zm7.317 0c-.497 0-.925-.106-1.284-.318a2.16 2.16 0 0 1-.827-.903c-.192-.39-.289-.846-.289-1.369 0-.516.097-.971.29-1.365.194-.394.465-.701.813-.922.35-.221.76-.332 1.228-.332.284 0 .56.047.827.141.267.094.507.242.719.443.212.202.38.463.502.785.123.32.184.708.184 1.165v.348h-4.008v-.735h3.046c0-.258-.052-.487-.157-.686a1.19 1.19 0 0 0-.443-.476 1.238 1.238 0 0 0-.663-.174c-.276 0-.517.068-.723.203a1.366 1.366 0 0 0-.472.526c-.11.214-.165.447-.165.699v.574c0 .337.06.624.178.86.12.236.288.417.502.542.215.122.465.184.752.184.186 0 .355-.027.508-.08a1.054 1.054 0 0 0 .653-.64l.93.168a1.682 1.682 0 0 1-.4.719c-.191.203-.43.362-.72.476a2.69 2.69 0 0 1-.981.167Zm3.956-3.095v2.994h-.981V2.603h.942v.82h.062c.116-.267.298-.481.545-.643.25-.162.563-.243.942-.243.343 0 .644.072.903.217.258.142.458.354.6.637.142.282.214.63.214 1.047v3.207h-.982v-3.09c0-.365-.095-.65-.285-.856-.19-.208-.452-.312-.785-.312-.227 0-.43.05-.607.148a1.062 1.062 0 0 0-.417.433 1.43 1.43 0 0 0-.151.683Z"/></svg>