<svg xmlns="http://www.w3.org/2000/svg" width="32" height="32" fill="none"><path fill="#fff" d="M.5 16C.5 7.44 7.44.5 16 .5 24.56.5 31.5 7.44 31.5 16c0 8.56-6.94 15.5-15.5 15.5C7.44 31.5.5 24.56.5 16Z"/><path stroke="#C6C6CC" d="M.5 16C.5 7.44 7.44.5 16 .5 24.56.5 31.5 7.44 31.5 16c0 8.56-6.94 15.5-15.5 15.5C7.44 31.5.5 24.56.5 16Z"/><path fill="#252529" fill-rule="evenodd" d="M16.193 12.233a.66.66 0 0 1 .934 0l3.3 3.3a.66.66 0 0 1 0 .934l-3.3 3.3a.66.66 0 0 1-.934-.934l2.173-2.173H12.04a.66.66 0 0 1 0-1.32h6.326l-2.173-2.173a.66.66 0 0 1 0-.934Z" clip-rule="evenodd"/></svg>