<svg xmlns="http://www.w3.org/2000/svg" width="32" height="32" fill="none"><path fill="#404047" d="M0 16C0 7.163 7.163 0 16 0s16 7.163 16 16-7.163 16-16 16S0 24.837 0 16Z"/><path fill="#fff" d="M17.834 9.103c.375 0 .739.022 1.113.033.242 0 .485.044.705.066l-.022 2.226H18.165c-.595.022-1.025.242-1.058.98a75.721 75.721 0 0 0-.033 1.763h2.457c-.121.86-.231 1.675-.352 2.5h-2.116l-.044 6.259H14.43l.044-6.27h-2.126l.022-2.49h2.126v-.186c0-.507 0-1.003.022-1.51 0-.32.022-.639.077-.958.143-.76.496-1.4 1.135-1.862.562-.397 1.19-.562 1.873-.584h.21l.021.033Z"/></svg>