<svg xmlns="http://www.w3.org/2000/svg" width="116" height="29" fill="none"><path fill="#252529" d="M58.166 15.807c-2.352 0-4.269 1.79-4.269 4.254 0 2.448 1.917 4.253 4.27 4.253 2.352 0 4.27-1.805 4.27-4.253-.002-2.465-1.919-4.254-4.27-4.254Zm0 6.833c-1.289 0-2.4-1.064-2.4-2.579 0-1.53 1.112-2.578 2.4-2.578 1.29 0 2.4 1.047 2.4 2.578 0 1.515-1.11 2.579-2.4 2.579Zm-9.314-6.833c-2.352 0-4.269 1.79-4.269 4.254 0 2.448 1.917 4.253 4.27 4.253 2.352 0 4.27-1.805 4.27-4.253 0-2.465-1.918-4.254-4.27-4.254Zm0 6.833c-1.289 0-2.4-1.064-2.4-2.579 0-1.53 1.112-2.578 2.4-2.578 1.29 0 2.4 1.047 2.4 2.578.001 1.515-1.11 2.579-2.4 2.579Zm-11.078-5.527v1.805h4.318c-.129 1.015-.467 1.756-.983 2.27-.628.629-1.61 1.322-3.335 1.322-2.658 0-4.736-2.144-4.736-4.802 0-2.657 2.078-4.8 4.736-4.8 1.434 0 2.481.564 3.254 1.289l1.273-1.273c-1.08-1.031-2.513-1.82-4.527-1.82-3.64 0-6.702 2.964-6.702 6.605 0 3.64 3.061 6.605 6.702 6.605 1.965 0 3.448-.645 4.607-1.854 1.192-1.192 1.563-2.867 1.563-4.22 0-.418-.032-.805-.097-1.127h-6.073Zm45.308 1.402c-.354-.95-1.434-2.708-3.64-2.708-2.192 0-4.013 1.725-4.013 4.254 0 2.384 1.805 4.253 4.221 4.253 1.95 0 3.077-1.192 3.545-1.886l-1.45-.966c-.483.709-1.144 1.175-2.095 1.175-.95 0-1.627-.434-2.062-1.288l5.687-2.352-.193-.482Zm-5.8 1.418c-.048-1.645 1.273-2.482 2.224-2.482.741 0 1.37.372 1.58.902l-3.804 1.58Zm-4.623 4.123h1.868v-12.5H72.66v12.5Zm-3.062-7.297h-.064c-.419-.5-1.225-.952-2.239-.952-2.127 0-4.076 1.87-4.076 4.27 0 2.384 1.95 4.237 4.076 4.237 1.015 0 1.82-.45 2.24-.965h.063v.611c0 1.627-.87 2.497-2.27 2.497-1.145 0-1.854-.82-2.144-1.514l-1.627.677c.467 1.127 1.707 2.514 3.77 2.514 2.191 0 4.044-1.29 4.044-4.431v-7.636h-1.772v.692Zm-2.142 5.88c-1.289 0-2.368-1.08-2.368-2.561 0-1.5 1.08-2.595 2.368-2.595 1.272 0 2.271 1.095 2.271 2.595 0 1.482-.999 2.562-2.27 2.562Zm24.381-11.083h-4.47v12.5h1.864V19.32h2.605c2.068 0 4.102-1.497 4.102-3.882s-2.033-3.883-4.1-3.883Zm.048 6.025H89.23v-4.285h2.654c1.395 0 2.187 1.155 2.187 2.143 0 .968-.792 2.142-2.187 2.142Zm11.532-1.795c-1.351 0-2.75.595-3.329 1.914l1.656.69c.354-.69 1.014-.916 1.705-.916.965 0 1.946.578 1.962 1.607v.13c-.338-.194-1.062-.482-1.946-.482-1.785 0-3.603.98-3.603 2.814 0 1.672 1.464 2.75 3.104 2.75 1.254 0 1.946-.563 2.38-1.223h.064v.965h1.802V19.24c.001-2.218-1.657-3.455-3.795-3.455Zm-.226 6.85c-.61 0-1.463-.305-1.463-1.061 0-.965 1.062-1.335 1.979-1.335.819 0 1.206.177 1.704.418a2.262 2.262 0 0 1-2.22 1.979Zm10.583-6.578-2.139 5.42h-.064l-2.22-5.42h-2.01l3.329 7.576-1.898 4.213h1.946l5.131-11.789h-2.075Zm-16.806 7.998h1.865v-12.5h-1.865v12.5Z"/><path fill="#EA4335" d="M10.744 13.48.098 24.78l.001.006a2.875 2.875 0 0 0 4.237 1.735l.034-.02 11.984-6.915-5.61-6.106Z"/><path fill="#FBBC04" d="m21.515 11.556-.01-.007-5.174-3-5.829 5.188 5.85 5.848 5.146-2.97a2.877 2.877 0 0 0 .017-5.059Z"/><path fill="#4285F4" d="M.098 3.333a2.818 2.818 0 0 0-.098.74V24.04c0 .257.033.505.098.74l11.013-11.011L.098 3.333Z"/><path fill="#34A853" d="m10.823 14.057 5.51-5.51-11.97-6.94A2.882 2.882 0 0 0 .098 3.33v.003l10.725 10.724Z"/><path fill="#989898" d="M33.915 7.645h-2.177V.922h2.246c.658 0 1.224.135 1.697.404a2.66 2.66 0 0 1 1.086 1.152c.254.499.38 1.097.38 1.796 0 .7-.127 1.302-.383 1.805-.254.503-.622.89-1.103 1.162-.481.269-1.064.404-1.746.404Zm-1.162-.887h1.106c.512 0 .938-.096 1.277-.289a1.82 1.82 0 0 0 .761-.843c.169-.37.253-.82.253-1.353 0-.527-.084-.974-.253-1.342a1.785 1.785 0 0 0-.745-.837c-.33-.19-.74-.286-1.23-.286h-1.17v4.95Zm5.3.887V2.603h.982v5.042h-.982Zm.496-5.82a.624.624 0 0 1-.44-.17.555.555 0 0 1-.18-.414c0-.162.06-.3.18-.414a.618.618 0 0 1 .44-.174c.17 0 .316.058.436.174a.544.544 0 0 1 .184.414.55.55 0 0 1-.184.413.612.612 0 0 1-.436.17Zm5.307 2.009-.89.157a1.055 1.055 0 0 0-.177-.325.877.877 0 0 0-.322-.252 1.165 1.165 0 0 0-.509-.099c-.277 0-.51.062-.695.187-.186.123-.28.281-.28.476 0 .169.063.304.188.407.124.103.326.187.604.253l.8.184c.464.107.81.272 1.038.495.227.224.341.513.341.87 0 .302-.087.571-.263.808a1.72 1.72 0 0 1-.725.551c-.308.134-.666.2-1.073.2-.565 0-1.025-.12-1.382-.36a1.527 1.527 0 0 1-.657-1.035l.949-.144c.06.247.18.434.364.561.184.125.424.187.72.187.32 0 .578-.067.77-.2.193-.136.29-.3.29-.496 0-.157-.06-.29-.178-.397-.116-.107-.294-.188-.535-.243l-.853-.187c-.47-.107-.819-.278-1.044-.512-.223-.234-.335-.53-.335-.89 0-.297.083-.557.25-.78.166-.224.396-.398.689-.523.293-.126.629-.19 1.008-.19.544 0 .973.118 1.286.355.313.234.52.548.62.942Zm.9 5.701V2.603h.958v.817h.082c.057-.105.14-.226.247-.364.107-.138.256-.258.446-.361.19-.105.442-.158.755-.158.407 0 .77.103 1.09.309.32.205.57.502.751.89.184.387.276.853.276 1.397 0 .545-.09 1.013-.272 1.402a2.125 2.125 0 0 1-.749.896c-.317.208-.68.312-1.086.312-.306 0-.557-.051-.752-.154a1.422 1.422 0 0 1-.453-.361 2.737 2.737 0 0 1-.253-.368h-.059v2.675h-.981Zm.962-4.411c0 .354.051.665.154.932.103.267.252.476.446.627.195.149.434.223.716.223.293 0 .538-.078.735-.233.197-.158.346-.371.447-.64.102-.27.154-.572.154-.91 0-.332-.05-.63-.151-.895a1.372 1.372 0 0 0-.447-.627c-.197-.154-.443-.23-.738-.23-.285 0-.525.073-.722.22a1.35 1.35 0 0 0-.443.614 2.56 2.56 0 0 0-.151.919Zm6.59 2.622c-.474 0-.886-.108-1.238-.325a2.191 2.191 0 0 1-.82-.909c-.196-.39-.293-.845-.293-1.365 0-.523.097-.98.292-1.372.195-.392.468-.696.82-.913.353-.217.765-.325 1.238-.325s.885.108 1.238.325c.352.217.625.52.82.913.195.391.292.849.292 1.372 0 .52-.097.976-.292 1.365-.195.39-.468.693-.82.91-.353.216-.765.324-1.238.324Zm.002-.824c.307 0 .56-.08.762-.242.201-.162.35-.378.446-.647.099-.27.148-.566.148-.89 0-.321-.05-.617-.148-.886a1.444 1.444 0 0 0-.446-.653c-.201-.164-.455-.246-.762-.246-.308 0-.564.082-.768.246a1.466 1.466 0 0 0-.45.653c-.096.27-.144.565-.144.886 0 .324.048.62.145.89.098.269.248.485.45.647.203.161.459.242.767.242Zm4.147-2.271v2.994h-.981V2.603h.942v.82h.062a1.44 1.44 0 0 1 .545-.643c.25-.162.563-.243.942-.243.343 0 .644.072.903.217.258.142.458.354.6.637.142.282.214.63.214 1.047v3.207h-.982v-3.09c0-.365-.095-.65-.285-.856-.19-.208-.452-.312-.785-.312-.227 0-.43.05-.607.148a1.062 1.062 0 0 0-.417.433 1.43 1.43 0 0 0-.151.683Zm4.265 2.994V2.603h.982v5.042h-.982Zm.496-5.82a.624.624 0 0 1-.44-.17.555.555 0 0 1-.18-.414c0-.162.06-.3.18-.414a.618.618 0 0 1 .44-.174c.17 0 .316.058.437.174a.544.544 0 0 1 .184.414.55.55 0 0 1-.184.413.612.612 0 0 1-.437.17Zm1.608 5.82V.922h.981V3.42h.06c.056-.105.138-.226.245-.364.108-.138.257-.258.447-.361.19-.105.442-.158.755-.158.407 0 .77.103 1.09.309.32.205.57.502.751.89.184.387.276.853.276 1.397 0 .545-.09 1.013-.272 1.402a2.126 2.126 0 0 1-.749.896c-.317.208-.68.312-1.086.312-.307 0-.557-.051-.752-.154a1.423 1.423 0 0 1-.453-.361 2.737 2.737 0 0 1-.253-.368h-.082v.785h-.958Zm.962-2.521c0 .354.051.665.154.932.103.267.252.476.446.627.195.149.433.223.716.223.293 0 .538-.078.735-.233.197-.158.346-.371.447-.64.102-.27.154-.572.154-.91 0-.332-.05-.63-.151-.895a1.37 1.37 0 0 0-.447-.627c-.197-.154-.443-.23-.738-.23-.285 0-.525.073-.722.22a1.35 1.35 0 0 0-.444.614c-.1.262-.15.569-.15.919Zm5.45-4.202v6.723h-.982V.922h.981Zm3.215 6.824c-.496 0-.924-.106-1.283-.318a2.16 2.16 0 0 1-.827-.903c-.193-.39-.29-.846-.29-1.369 0-.516.097-.971.29-1.365.194-.394.466-.701.814-.922.35-.221.759-.332 1.227-.332.285 0 .56.047.828.141.266.094.506.242.718.443.213.202.38.463.502.785.123.32.184.708.184 1.165v.348H70.61v-.735h3.046c0-.258-.053-.487-.158-.686a1.19 1.19 0 0 0-.443-.476 1.238 1.238 0 0 0-.663-.174c-.276 0-.517.068-.722.203a1.366 1.366 0 0 0-.473.526c-.11.214-.164.447-.164.699v.574c0 .337.059.624.177.86.12.236.288.417.502.542.215.122.465.184.752.184.186 0 .356-.027.509-.08a1.054 1.054 0 0 0 .653-.64l.929.168a1.682 1.682 0 0 1-.4.719c-.19.203-.43.362-.72.476a2.69 2.69 0 0 1-.98.167Zm7.317 0c-.497 0-.925-.106-1.284-.318a2.16 2.16 0 0 1-.827-.903c-.192-.39-.289-.846-.289-1.369 0-.516.097-.971.29-1.365.194-.394.465-.701.813-.922.35-.221.76-.332 1.228-.332.284 0 .56.047.827.141.267.094.507.242.719.443.212.202.38.463.502.785.123.32.184.708.184 1.165v.348h-4.008v-.735h3.046c0-.258-.052-.487-.157-.686a1.19 1.19 0 0 0-.443-.476 1.238 1.238 0 0 0-.663-.174c-.276 0-.517.068-.723.203a1.366 1.366 0 0 0-.472.526c-.11.214-.165.447-.165.699v.574c0 .337.06.624.178.86.12.236.288.417.502.542.215.122.465.184.752.184.186 0 .355-.027.508-.08a1.054 1.054 0 0 0 .653-.64l.93.168a1.682 1.682 0 0 1-.4.719c-.191.203-.43.362-.72.476a2.69 2.69 0 0 1-.981.167Zm3.956-3.095v2.994h-.981V2.603h.942v.82h.062c.116-.267.298-.481.545-.643.25-.162.563-.243.942-.243.343 0 .644.072.903.217.258.142.458.354.6.637.142.282.214.63.214 1.047v3.207h-.982v-3.09c0-.365-.095-.65-.285-.856-.19-.208-.452-.312-.785-.312-.227 0-.43.05-.607.148a1.062 1.062 0 0 0-.417.433 1.43 1.43 0 0 0-.151.683Z"/></svg>