<svg xmlns="http://www.w3.org/2000/svg" width="44" height="44" fill="none"><path fill="#fff" d="M.5 22C.5 10.126 10.126.5 22 .5S43.5 10.126 43.5 22 33.874 43.5 22 43.5.5 33.874.5 22Z"/><path stroke="#C6C6CC" d="M.5 22C.5 10.126 10.126.5 22 .5S43.5 10.126 43.5 22 33.874 43.5 22 43.5.5 33.874.5 22Z"/><path fill="#252529" d="M25.361 14.3h-6.574c-2.475 0-4.486 2.002-4.486 4.466v6.39c0 2.542 2.01 4.544 4.486 4.544h6.42c2.474 0 4.485-2.002 4.485-4.466v-6.468c.155-2.464-1.856-4.466-4.33-4.466Zm-3.326 11.704c-2.243 0-4.022-1.771-4.022-4.004 0-2.233 1.78-4.004 4.022-4.004 2.243 0 4.022 1.77 4.022 4.004 0 2.233-1.779 4.004-4.022 4.004Zm4.641-7.623a1.022 1.022 0 0 1-1.005-1.001c0-.54.386-1.001 1.005-1.001.541 0 1.005.462 1.005 1 0 .54-.464 1.002-1.005 1.002Z"/><path fill="#252529" d="M24.31 22a2.31 2.31 0 1 1-4.62 0 2.31 2.31 0 0 1 4.62 0Z"/></svg>