<svg xmlns="http://www.w3.org/2000/svg" width="32" height="32" fill="none"><path fill="#404047" d="M0 16C0 7.163 7.163 0 16 0s16 7.163 16 16-7.163 16-16 16S0 24.837 0 16Z"/><path fill="#fff" d="M18.88 9.4h-5.634c-2.122 0-3.846 1.716-3.846 3.828v5.478c0 2.178 1.724 3.894 3.845 3.894h5.503c2.121 0 3.845-1.716 3.845-3.828v-5.544c.133-2.112-1.59-3.828-3.712-3.828Zm-2.85 10.032A3.416 3.416 0 0 1 12.583 16a3.416 3.416 0 0 1 3.447-3.432A3.416 3.416 0 0 1 19.477 16a3.416 3.416 0 0 1-3.447 3.432Zm3.978-6.534a.876.876 0 0 1-.862-.858c0-.462.331-.858.862-.858.464 0 .861.396.861.858a.876.876 0 0 1-.861.858Z"/><path fill="#fff" d="M17.98 16a1.98 1.98 0 1 1-3.96 0 1.98 1.98 0 0 1 3.96 0Z"/></svg>