<svg xmlns="http://www.w3.org/2000/svg" width="20" height="20" fill="none"><path fill="#252529" fill-rule="evenodd" d="M11.1 6.15a.55.55 0 1 1 0-1.1h3.3a.55.55 0 0 1 .55.55v3.3a.55.55 0 0 1-1.1 0V6.928l-4.56 4.561a.55.55 0 0 1-.778-.778l4.561-4.561h-1.972Zm-4.4 1.1a.55.55 0 0 0-.55.55v5.5c0 .304.247.55.55.55h5.5a.55.55 0 0 0 .55-.55v-2.2a.55.55 0 0 1 1.1 0v2.2a1.65 1.65 0 0 1-1.65 1.65H6.7a1.65 1.65 0 0 1-1.65-1.65V7.8c0-.911.74-1.65 1.65-1.65h2.2a.55.55 0 1 1 0 1.1H6.7Z" clip-rule="evenodd"/></svg>