<svg xmlns="http://www.w3.org/2000/svg" width="32" height="32" fill="none"><path fill="#fff" d="M.5 16C.5 7.44 7.44.5 16 .5 24.56.5 31.5 7.44 31.5 16c0 8.56-6.94 15.5-15.5 15.5C7.44 31.5.5 24.56.5 16Z"/><path stroke="#C6C6CC" d="M.5 16C.5 7.44 7.44.5 16 .5 24.56.5 31.5 7.44 31.5 16c0 8.56-6.94 15.5-15.5 15.5C7.44 31.5.5 24.56.5 16Z"/><path fill="#252529" d="M11.014 9.4c.879 0 1.582.714 1.582 1.593 0 .878-.725 1.592-1.604 1.592a1.584 1.584 0 0 1-1.58-1.592c0-.879.724-1.593 1.602-1.593ZM12.354 13.782l-.066 8.818H9.543l.066-8.818h2.745ZM19.328 13.563c2.778 0 3.272 1.822 3.261 4.194l-.033 4.832h-2.734l.033-4.282c0-1.022 0-2.34-1.406-2.34s-1.647 1.11-1.658 2.263l-.033 4.36h-2.745l.065-8.819h2.625v1.208h.033c.373-.692 1.274-1.416 2.603-1.416h-.011Z"/></svg>