<svg xmlns="http://www.w3.org/2000/svg" width="44" height="44" fill="none"><path fill="#fff" d="M.5 22C.5 10.126 10.126.5 22 .5S43.5 10.126 43.5 22 33.874 43.5 22 43.5.5 33.874.5 22Z"/><path stroke="#C6C6CC" d="M.5 22C.5 10.126 10.126.5 22 .5S43.5 10.126 43.5 22 33.874 43.5 22 43.5.5 33.874.5 22Z"/><path fill="#252529" d="M16.183 14.3c1.025 0 1.845.833 1.845 1.858a1.87 1.87 0 0 1-1.87 1.858 1.848 1.848 0 0 1-1.846-1.858 1.87 1.87 0 0 1 1.871-1.858ZM17.746 19.412 17.67 29.7h-3.203l.077-10.288h3.203ZM25.882 19.156c3.241 0 3.818 2.127 3.805 4.894l-.039 5.637h-3.19l.039-4.996c0-1.192 0-2.73-1.64-2.73s-1.922 1.295-1.935 2.64l-.038 5.087H19.68l.077-10.288h3.062v1.409h.038c.436-.807 1.486-1.653 3.037-1.653h-.013Z"/></svg>