<svg xmlns="http://www.w3.org/2000/svg" width="32" height="32" fill="none"><path fill="#404047" d="M0 16C0 7.163 7.163 0 16 0s16 7.163 16 16-7.163 16-16 16S0 24.837 0 16Z"/><path fill="#fff" d="M11.014 9.4c.879 0 1.582.714 1.582 1.592 0 .879-.725 1.593-1.604 1.593a1.584 1.584 0 0 1-1.58-1.593c0-.878.724-1.592 1.602-1.592ZM12.354 13.782l-.066 8.818H9.543l.066-8.818h2.745ZM19.328 13.562c2.778 0 3.272 1.823 3.261 4.195l-.033 4.832h-2.734l.033-4.283c0-1.021 0-2.339-1.406-2.339s-1.647 1.11-1.658 2.262l-.033 4.36h-2.745l.065-8.818h2.625v1.208h.033c.373-.692 1.274-1.417 2.603-1.417h-.011Z"/></svg>