<svg xmlns="http://www.w3.org/2000/svg" width="32" height="32" fill="none"><path fill="#404047" d="M0 16C0 7.163 7.163 0 16 0s16 7.163 16 16-7.163 16-16 16S0 24.837 0 16Z"/><path fill="#fff" d="M10.966 12.874a.518.518 0 0 0-.166-.435l-1.233-1.494v-.225h3.828l2.957 6.537 2.6-6.537H22.6v.225l-1.053 1.016a.311.311 0 0 0-.117.298v7.482a.31.31 0 0 0 .117.297l1.03 1.02v.222H17.4v-.224l1.065-1.043c.105-.106.105-.136.105-.297v-6.047l-2.966 7.586h-.4l-3.45-7.586v5.085a.705.705 0 0 0 .191.583l1.386 1.695v.224h-3.93v-.224l1.385-1.695a.68.68 0 0 0 .18-.583v-5.88Z"/></svg>