<svg xmlns="http://www.w3.org/2000/svg" width="24" height="24" fill="none"><path fill="currentColor" d="M11.124 13.938v-.083c.006-.547.06-.982.164-1.306.105-.323.255-.585.45-.785.194-.2.427-.382.7-.547a2.88 2.88 0 0 0 .477-.375c.141-.138.253-.297.335-.476a1.41 1.41 0 0 0 .124-.595c0-.262-.062-.489-.185-.68a1.234 1.234 0 0 0-.494-.44 1.445 1.445 0 0 0-.68-.16c-.226 0-.442.048-.648.142a1.228 1.228 0 0 0-.512.44c-.135.198-.213.452-.233.764H9.28c.02-.53.154-.977.401-1.341.247-.368.574-.646.98-.834.408-.188.86-.282 1.353-.282.541 0 1.015.101 1.42.304.406.2.721.481.944.843.227.358.34.777.34 1.257 0 .329-.051.626-.154.89-.103.262-.25.496-.441.702a3.008 3.008 0 0 1-.68.547c-.25.156-.452.317-.608.485a1.543 1.543 0 0 0-.335.595c-.071.23-.11.514-.115.852v.083h-1.261Zm.666 2.682a.856.856 0 0 1-.621-.256.854.854 0 0 1-.26-.626c0-.241.086-.447.26-.618a.85.85 0 0 1 .621-.26c.239 0 .445.087.618.26.176.171.265.377.265.618 0 .162-.042.31-.124.445a.912.912 0 0 1-.317.318.84.84 0 0 1-.441.119Z"/></svg>