<svg xmlns="http://www.w3.org/2000/svg" width="64" height="16" fill="none"><path fill="#1DBF79" fill-rule="evenodd" d="m23.573 4.309-.2.064c-7.49 2.407-14.047 6.542-20.24 11.223-.777.587-1.966.527-2.657-.133-.691-.66-.621-1.671.156-2.259C6.956 8.424 13.919 3.991 22.04 1.38l.225-.072c.947-.306 2.367-.765 3.825-1.045 1.493-.288 3.509-.491 5.198.234 1.78.764 2.819 1.947 3.104 3.389.26 1.318-.153 2.652-.677 3.771-.355.758-.805 1.505-1.262 2.199a45.683 45.683 0 0 1 3.594-.616c7.787-1.036 16.09-.59 26.533 1.665 1.008.217 1.618 1.088 1.362 1.944-.256.857-1.28 1.374-2.288 1.157-10.08-2.175-17.857-2.558-25.025-1.604-2.313.308-4.573.767-6.643 1.506a8.924 8.924 0 0 1-.134.059c-.105.045-.31.133-.535.2a2.884 2.884 0 0 1-.536.109c-.17.017-.743.063-1.322-.25-.766-.413-.929-1.085-.901-1.503.022-.347.163-.617.235-.743.323-.57.826-1.273 1.318-1.964l.419-.59c.652-.927 1.27-1.863 1.688-2.753.429-.916.552-1.594.46-2.057-.067-.341-.269-.711-1.088-1.063-.439-.188-1.315-.23-2.67.03-1.186.23-2.373.611-3.348.926Zm6.616 8.852a.437.437 0 0 0 0 0Z" clip-rule="evenodd"/></svg>