<svg xmlns="http://www.w3.org/2000/svg" width="32" height="32" fill="none"><path fill="#404047" d="M0 16C0 7.163 7.163 0 16 0s16 7.163 16 16-7.163 16-16 16S0 24.837 0 16Z"/><path fill="#fff" d="m13.875 12.64 5.069 6.673h-.785l-5.122-6.672h.838Z"/><path fill="#fff" d="M19.3 9.4h-6.6a3.3 3.3 0 0 0-3.3 3.3v6.6a3.3 3.3 0 0 0 3.3 3.3h6.6a3.3 3.3 0 0 0 3.3-3.3v-6.6a3.3 3.3 0 0 0-3.3-3.3Zm-1.53 10.758-2.232-2.904-2.56 2.904h-1.413l3.3-3.769-3.485-4.547h2.924l2.02 2.64 2.316-2.64h1.413l-3.076 3.498 3.643 4.818h-2.85Z"/></svg>