<svg xmlns="http://www.w3.org/2000/svg" width="32" height="32" fill="none"><path fill="#404047" d="M0 16C0 7.163 7.163 0 16 0s16 7.163 16 16-7.163 16-16 16S0 24.837 0 16Z"/><path fill="#fff" d="m17.241 9.52-.395-.055a6.318 6.318 0 0 0-6.173 2.768 6.298 6.298 0 0 0-.49 6.685.9.9 0 0 1 .068.692c-.283.976-.546 1.959-.823 2.99l.346-.104c.934-.249 1.868-.498 2.803-.727.197-.04.402-.021.588.056A6.54 6.54 0 1 0 17.24 9.52Zm1.744 9.08a1.91 1.91 0 0 1-1.882.387 6.36 6.36 0 0 1-3.55-2.567 5.889 5.889 0 0 1-.769-1.44 1.723 1.723 0 0 1 .38-1.744.85.85 0 0 1 .914-.29c.139.034.236.235.36.387.101.286.22.566.353.838a.65.65 0 0 1-.138.906c-.312.277-.263.505-.042.817a4.643 4.643 0 0 0 1.952 1.606c.221.096.387.117.533-.111.062-.09.145-.166.214-.25.402-.505.277-.498.914-.22.203.084.4.184.588.297.187.11.47.228.512.394a1.004 1.004 0 0 1-.339.99Z"/></svg>