<svg xmlns="http://www.w3.org/2000/svg" width="32" height="32" fill="none"><path fill="#404047" d="M0 16C0 7.163 7.163 0 16 0s16 7.163 16 16-7.163 16-16 16S0 24.837 0 16Z"/><path fill="#fff" d="M10.393 20.18c.11.066.22.11.34.154.199.066.65.121 1.255.165.099 0 .209.011.319.022.979.055 2.277.088 3.586.088H17.3c.308 0 .616-.011.902-.022.44-.011.858-.033 1.243-.055 1.023-.055 1.77-.143 2.002-.253l.264-.165a1.47 1.47 0 0 0 .23-.22c.023-.022.034-.044.056-.066l.066-.099c.022-.033.033-.055.055-.088.01-.022.033-.044.044-.066.165-.341.275-.968.352-1.705v-.099c.099-1.045.11-2.31.044-3.355 0-.066 0-.132-.011-.209-.055-.693-.143-1.276-.275-1.617 0-.022-.022-.044-.033-.066a1.729 1.729 0 0 0-.198-.34 1.551 1.551 0 0 0-.76-.55c-.45-.166-2.815-.243-5.213-.243-1.936 0-3.894.055-4.906.165-.44.044-.814.242-1.111.583-.858.99-.759 6.039-.33 7.249.088.242.209.44.374.605.055.055.121.099.187.143.033.022.055.055.099.077l.01-.033Zm4.015-6.479c1.364.715 2.717 1.42 4.08 2.134-.384.198-.758.396-1.143.594-.154.077-.308.154-.462.242-.836.429-1.672.869-2.508 1.298 0-1.43.022-2.838.033-4.268Z"/></svg>